<svg width="833" height="262" viewBox="0 0 833 262" fill="none" xmlns="http://www.w3.org/2000/svg">
<path d="M800.146 3.42922C800.769 1.03891 803.212 -0.393317 805.603 0.229907C807.993 0.853131 809.425 3.29653 808.802 5.68685C808.205 7.97727 805.926 9.40562 803.605 8.9458C801.182 8.46571 799.606 6.11237 800.086 3.68895C800.103 3.60188 800.123 3.5151 800.146 3.42922ZM832.947 36.7374C833.255 38.3554 832.192 39.9162 830.575 40.2239C830.57 40.2248 830.566 40.2257 830.561 40.2263C829.293 40.4827 828.005 39.8926 827.371 38.7651L822.361 28.716L818.037 29.5808L817.381 29.8193H817.202V36.2305L819.051 35.7832H819.469C820.325 35.7993 821.006 36.5063 820.99 37.3627C820.978 37.9782 820.604 38.5287 820.035 38.7651L805.126 41.7471C804.958 41.7754 804.786 41.7754 804.619 41.7471C803.762 41.7471 803.068 41.0529 803.068 40.1965C803.068 39.5706 803.444 39.0058 804.022 38.7651L816.397 36.2901V29.8193L806.795 31.5489C806.306 31.675 805.793 31.675 805.304 31.5489C804.292 31.2903 803.489 30.5213 803.187 29.5211H803.128L800.146 17.3847C800.053 16.9624 800.053 16.5247 800.146 16.1024C800.425 14.9484 801.362 14.0703 802.531 13.866L816.546 12.3154V0H817.202V12.2259H817.381L818.037 12.1663L819.23 11.9277H819.856C820.653 12.1195 821.146 12.9186 820.96 13.7169C820.829 14.4177 820.211 14.9219 819.498 14.9097L818.037 15.1482H817.381H817.202V23.6766H817.381L818.037 23.4976L823.435 22.4241C824.709 22.3192 825.909 23.039 826.417 24.2133L832.38 35.9621C832.61 36.1882 832.801 36.45 832.947 36.7374ZM816.546 15.2973L809.091 16.1024L811.298 24.8693L816.546 23.8555V15.2973Z" fill="#F4B400"/>
<path d="M800.146 114.429C800.769 112.039 803.212 110.607 805.603 111.23C807.993 111.853 809.425 114.297 808.802 116.687C808.205 118.977 805.926 120.406 803.605 119.946C801.182 119.466 799.606 117.112 800.086 114.689C800.103 114.602 800.123 114.515 800.146 114.429ZM832.947 147.737C833.255 149.355 832.192 150.916 830.575 151.224C830.57 151.225 830.566 151.226 830.561 151.226C829.293 151.483 828.005 150.893 827.371 149.765L822.361 139.716L818.037 140.581L817.381 140.819H817.202V147.23L819.051 146.783H819.469C820.325 146.799 821.006 147.506 820.99 148.363C820.978 148.978 820.604 149.529 820.035 149.765L805.126 152.747C804.958 152.775 804.786 152.775 804.619 152.747C803.762 152.747 803.068 152.053 803.068 151.196C803.068 150.571 803.444 150.006 804.022 149.765L816.397 147.29V140.819L806.795 142.549C806.306 142.675 805.793 142.675 805.304 142.549C804.292 142.29 803.489 141.521 803.187 140.521H803.128L800.146 128.385C800.053 127.962 800.053 127.525 800.146 127.102C800.425 125.948 801.362 125.07 802.531 124.866L816.546 123.315V111H817.202V123.226H817.381L818.037 123.166L819.23 122.928H819.856C820.653 123.119 821.146 123.919 820.96 124.717C820.829 125.418 820.211 125.922 819.498 125.91L818.037 126.148H817.381H817.202V134.677H817.381L818.037 134.498L823.435 133.424C824.709 133.319 825.909 134.039 826.417 135.213L832.38 146.962C832.61 147.188 832.801 147.45 832.947 147.737ZM816.546 126.297L809.091 127.102L811.298 135.869L816.546 134.855V126.297Z" fill="#F4B400"/>
<path d="M0.145674 114.429C0.769197 112.039 3.21229 110.607 5.60261 111.23C7.99293 111.853 9.42515 114.297 8.80193 116.687C8.20465 118.977 5.92645 120.406 3.60472 119.946C1.1816 119.466 -0.393758 117.112 0.0860356 114.689C0.103331 114.602 0.12331 114.515 0.145674 114.429ZM32.9469 147.737C33.2547 149.355 32.1922 150.916 30.5745 151.224C30.57 151.225 30.5659 151.226 30.5614 151.226C29.2935 151.483 28.0047 150.893 27.3707 149.765L22.3611 139.716L18.0373 140.581L17.3813 140.819H17.2023V147.23L19.0511 146.783H19.4686C20.3247 146.799 21.0058 147.506 20.9897 148.363C20.9781 148.978 20.6035 149.529 20.0352 149.765L5.1255 152.747C4.95762 152.775 4.78646 152.775 4.61857 152.747C3.76216 152.747 3.06797 152.053 3.06797 151.196C3.06797 150.571 3.44429 150.006 4.02219 149.765L16.3972 147.29V140.819L6.79539 142.549C6.30635 142.675 5.79346 142.675 5.30442 142.549C4.29235 142.29 3.48902 141.521 3.18725 140.521H3.12761L0.145674 128.385C0.0526379 127.962 0.0526379 127.525 0.145674 127.102C0.424783 125.948 1.36171 125.07 2.53122 124.866L16.5463 123.315V111H17.2023V123.226H17.3813L18.0373 123.166L19.2301 122.928H19.8563C20.6533 123.119 21.1462 123.919 20.9596 124.717C20.8287 125.418 20.2111 125.922 19.4984 125.91L18.0373 126.148H17.3813H17.2023V134.677H17.3813L18.0373 134.498L23.4346 133.424C24.7094 133.319 25.9093 134.039 26.4165 135.213L32.3804 146.962C32.61 147.188 32.8011 147.45 32.9469 147.737ZM16.5463 126.297L9.09148 127.102L11.2981 135.869L16.5463 134.855V126.297Z" fill="#F4B400"/>
<path d="M800.146 223.429C800.769 221.039 803.212 219.607 805.603 220.23C807.993 220.853 809.425 223.297 808.802 225.687C808.205 227.977 805.926 229.406 803.605 228.946C801.182 228.466 799.606 226.112 800.086 223.689C800.103 223.602 800.123 223.515 800.146 223.429ZM832.947 256.737C833.255 258.355 832.192 259.916 830.575 260.224C830.57 260.225 830.566 260.226 830.561 260.226C829.293 260.483 828.005 259.893 827.371 258.765L822.361 248.716L818.037 249.581L817.381 249.819H817.202V256.23L819.051 255.783H819.469C820.325 255.799 821.006 256.506 820.99 257.363C820.978 257.978 820.604 258.529 820.035 258.765L805.126 261.747C804.958 261.775 804.786 261.775 804.619 261.747C803.762 261.747 803.068 261.053 803.068 260.196C803.068 259.571 803.444 259.006 804.022 258.765L816.397 256.29V249.819L806.795 251.549C806.306 251.675 805.793 251.675 805.304 251.549C804.292 251.29 803.489 250.521 803.187 249.521H803.128L800.146 237.385C800.053 236.962 800.053 236.525 800.146 236.102C800.425 234.948 801.362 234.07 802.531 233.866L816.546 232.315V220H817.202V232.226H817.381L818.037 232.166L819.23 231.928H819.856C820.653 232.119 821.146 232.919 820.96 233.717C820.829 234.418 820.211 234.922 819.498 234.91L818.037 235.148H817.381H817.202V243.677H817.381L818.037 243.498L823.435 242.424C824.709 242.319 825.909 243.039 826.417 244.213L832.38 255.962C832.61 256.188 832.801 256.45 832.947 256.737ZM816.546 235.297L809.091 236.102L811.298 244.869L816.546 243.855V235.297Z" fill="#F4B400"/>
<path d="M89 22.6667H94.3333L80.92 4L67.6667 22.6667H73L65 33.3333H78.3333V41.3333H83.7467V33.3333H97L89 22.6667Z" fill="#0F9D58"/>
<path d="M89 131.667H94.3333L80.92 113L67.6667 131.667H73L65 142.333H78.3333V150.333H83.7467V142.333H97L89 131.667Z" fill="#0F9D58"/>
<path d="M89 240.667H94.3333L80.92 222L67.6667 240.667H73L65 251.333H78.3333V259.333H83.7467V251.333H97L89 240.667Z" fill="#0F9D58"/>
<path d="M759 240.667H764.333L750.92 222L737.667 240.667H743L735 251.333H748.333V259.333H753.747V251.333H767L759 240.667Z" fill="#0F9D58"/>
</svg>
