<svg width="555" height="47" viewBox="0 0 555 47" fill="none" xmlns="http://www.w3.org/2000/svg">
<path d="M23 0.396301C10.304 0.396301 0 10.7003 0 23.3963C0 36.0923 10.304 46.3963 23 46.3963C35.696 46.3963 46 36.0923 46 23.3963C46 10.7003 35.696 0.396301 23 0.396301ZM23 41.7963C12.857 41.7963 4.6 33.5393 4.6 23.3963C4.6 13.2533 12.857 4.9963 23 4.9963C33.143 4.9963 41.4 13.2533 41.4 23.3963C41.4 33.5393 33.143 41.7963 23 41.7963ZM10.35 36.0463L27.623 28.0193L35.65 10.7463L18.377 18.7733L10.35 36.0463ZM23 20.8663C24.403 20.8663 25.53 21.9933 25.53 23.3963C25.53 24.7993 24.403 25.9263 23 25.9263C21.597 25.9263 20.47 24.7993 20.47 23.3963C20.47 21.9933 21.597 20.8663 23 20.8663Z" fill="#4285F4"/>
<path d="M149.083 45.4796C136.887 45.4796 127 35.5929 127 23.3963C127 11.1996 136.887 1.31293 149.083 1.31293C161.28 1.31293 171.167 11.1996 171.167 23.3963C171.167 35.5929 161.28 45.4796 149.083 45.4796ZM149.083 41.0629C153.769 41.0629 158.262 39.2016 161.576 35.8885C164.889 32.5753 166.75 28.0818 166.75 23.3963C166.75 18.7108 164.889 14.2172 161.576 10.904C158.262 7.5909 153.769 5.72959 149.083 5.72959C144.398 5.72959 139.904 7.5909 136.591 10.904C133.278 14.2172 131.417 18.7108 131.417 23.3963C131.417 28.0818 133.278 32.5753 136.591 35.8885C139.904 39.2016 144.398 41.0629 149.083 41.0629ZM146.875 12.3546H151.292V16.7713H146.875V12.3546ZM146.875 21.1879H151.292V34.4379H146.875V21.1879Z" fill="#4285F4"/>
<path d="M299.04 15.8963L293.428 15.8963L291.868 11.9963C290.264 7.98661 286.439 5.3963 282.119 5.3963L270.213 5.3963C265.895 5.3963 262.068 7.98661 260.464 11.9963L258.904 15.8963H253.292C252.56 15.8963 252.023 16.5844 252.201 17.2941L252.764 19.5441C252.888 20.0447 253.338 20.3963 253.855 20.3963H255.736C254.477 21.496 253.666 23.0944 253.666 24.8963V29.3963C253.666 30.9076 254.244 32.2716 255.166 33.3272V38.3963C255.166 40.0529 256.51 41.3963 258.166 41.3963H261.166C262.823 41.3963 264.166 40.0529 264.166 38.3963V35.3963H288.166V38.3963C288.166 40.0529 289.51 41.3963 291.166 41.3963H294.166C295.823 41.3963 297.166 40.0529 297.166 38.3963V33.3272C298.089 32.2726 298.666 30.9085 298.666 29.3963V24.8963C298.666 23.0944 297.855 21.496 296.597 20.3963H298.479C298.995 20.3963 299.445 20.0447 299.57 19.5441L300.133 17.2941C300.31 16.5844 299.773 15.8963 299.04 15.8963ZM266.035 14.2247C266.718 12.5166 268.373 11.3963 270.213 11.3963H282.119C283.96 11.3963 285.614 12.5166 286.298 14.2247L288.166 18.8963H264.166L266.035 14.2247ZM261.166 29.3776C259.366 29.3776 258.166 28.1813 258.166 26.3869C258.166 24.5926 259.366 23.3963 261.166 23.3963C262.966 23.3963 265.666 26.0879 265.666 27.8822C265.666 29.6766 262.966 29.3776 261.166 29.3776ZM291.166 29.3776C289.366 29.3776 286.666 29.6766 286.666 27.8822C286.666 26.0879 289.366 23.3963 291.166 23.3963C292.966 23.3963 294.166 24.5926 294.166 26.3869C294.166 28.1813 292.966 29.3776 291.166 29.3776Z" fill="#4285F4"/>
<path d="M394.967 25.6962C398.777 25.6962 401.867 22.607 401.867 18.7962C401.867 14.9855 398.777 11.8962 394.967 11.8962C391.156 11.8962 388.067 14.9855 388.067 18.7962C388.067 22.607 391.156 25.6962 394.967 25.6962Z" fill="#4285F4"/>
<path d="M418.438 9.59626H404.167V27.9963H385.767V7.29626H381.167V39.4963H385.767V32.5963H422.567V39.4963H427.167V30.2963C427.167 30.2756 427.155 30.2595 427.155 30.2411H427.167V18.7963C427.167 13.9755 423.261 9.59626 418.438 9.59626Z" fill="#4285F4"/>
<path d="M543.433 32.5939H524.301L520.372 35.9481L516.443 32.5939H508.167V34.8939C508.167 37.8255 510.192 40.2136 512.696 40.2606C512.929 41.7096 513.492 43.0187 514.34 44.0431C515.595 45.5583 517.418 46.3939 519.475 46.3939H532.125C534.182 46.3939 536.005 45.5583 537.26 44.0412C538.108 43.0168 538.671 41.7077 538.904 40.2587C540.234 40.2347 541.429 39.5495 542.258 38.4733C543.033 37.4417 543.446 36.1837 543.433 34.8939V32.5939Z" fill="#4285F4"/>
<path d="M516.696 29.5272L520.369 32.2288L524.075 29.5272H543.433V28.7606C543.432 27.8772 543.127 27.0212 542.568 26.3369C542.009 25.6526 541.232 25.1818 540.367 25.0039C540.288 22.1586 539.121 19.7772 536.964 18.1039C534.968 16.5476 532.302 15.7272 529.25 15.7272H522.35C515.812 15.7272 511.384 19.4427 511.233 25.0039C510.368 25.1818 509.591 25.6526 509.032 26.3369C508.473 27.0212 508.168 27.8772 508.167 28.7606V29.5272H516.696Z" fill="#4285F4"/>
<path d="M551.012 8.06059H543.864L544.718 4.64317L548.992 3.17309L548.033 0.393921L542.092 2.31059L540.703 8.06059H526.567V11.1273H528.364L528.542 12.6606H529.25C532.987 12.6606 536.309 13.7052 538.845 15.6813C540.255 16.768 541.399 18.1628 542.187 19.759C542.674 20.7492 543.02 21.8023 543.216 22.8879C544.644 23.7672 545.703 25.1364 546.195 26.7396C546.687 28.3428 546.578 30.0703 545.889 31.5992C546.292 32.6507 546.5 33.7675 546.5 34.8939C546.5 37.0348 545.772 39.0751 544.449 40.6391C543.631 41.6141 542.582 42.37 541.399 42.8385C540.995 43.988 540.394 45.0582 539.623 46.001C539.51 46.1371 539.394 46.2703 539.275 46.3987H546.5C548.033 46.3987 548.704 45.632 548.896 44.1945L552.384 11.132H554.167V8.06059H551.012Z" fill="#4285F4"/>
</svg>
