<svg width="53" height="550" viewBox="0 0 53 550" fill="none" xmlns="http://www.w3.org/2000/svg">
<path d="M26.5 0C13.804 0 3.5 10.304 3.5 23C3.5 35.696 13.804 46 26.5 46C39.196 46 49.5 35.696 49.5 23C49.5 10.304 39.196 0 26.5 0ZM26.5 41.4C16.357 41.4 8.1 33.143 8.1 23C8.1 12.857 16.357 4.6 26.5 4.6C36.643 4.6 44.9 12.857 44.9 23C44.9 33.143 36.643 41.4 26.5 41.4ZM13.85 35.65L31.123 27.623L39.15 10.35L21.877 18.377L13.85 35.65ZM26.5 20.47C27.903 20.47 29.03 21.597 29.03 23C29.03 24.403 27.903 25.53 26.5 25.53C25.097 25.53 23.97 24.403 23.97 23C23.97 21.597 25.097 20.47 26.5 20.47Z" fill="black"/>
<path d="M26.5 178.583C14.3034 178.583 4.41667 168.697 4.41667 156.5C4.41667 144.303 14.3034 134.417 26.5 134.417C38.6966 134.417 48.5833 144.303 48.5833 156.5C48.5833 168.697 38.6966 178.583 26.5 178.583ZM26.5 174.167C31.1855 174.167 35.6791 172.305 38.9922 168.992C42.3054 165.679 44.1667 161.186 44.1667 156.5C44.1667 151.815 42.3054 147.321 38.9922 144.008C35.6791 140.695 31.1855 138.833 26.5 138.833C21.8145 138.833 17.3209 140.695 14.0078 144.008C10.6946 147.321 8.83334 151.815 8.83334 156.5C8.83334 161.186 10.6946 165.679 14.0078 168.992C17.3209 172.305 21.8145 174.167 26.5 174.167ZM24.2917 145.458H28.7083V149.875H24.2917V145.458ZM24.2917 154.292H28.7083V167.542H24.2917V154.292Z" fill="black"/>
<path d="M49.3738 277.5H43.7609L42.2009 273.6C40.5978 269.59 36.7719 267 32.4528 267H20.5466C16.2284 267 12.4016 269.59 10.7975 273.6L9.2375 277.5H3.62563C2.89344 277.5 2.35625 278.188 2.53438 278.898L3.09688 281.148C3.22156 281.648 3.67156 282 4.18813 282H6.06969C4.81063 283.1 3.99969 284.698 3.99969 286.5V291C3.99969 292.511 4.57719 293.875 5.49969 294.931V300C5.49969 301.657 6.84313 303 8.49969 303H11.4997C13.1563 303 14.4997 301.657 14.4997 300V297H38.4997V300C38.4997 301.657 39.8431 303 41.4997 303H44.4997C46.1563 303 47.4997 301.657 47.4997 300V294.931C48.4222 293.876 48.9997 292.512 48.9997 291V286.5C48.9997 284.698 48.1888 283.1 46.9306 282H48.8122C49.3288 282 49.7788 281.648 49.9034 281.148L50.4659 278.898C50.6431 278.188 50.1059 277.5 49.3738 277.5ZM16.3681 275.828C17.0516 274.12 18.7063 273 20.5466 273H32.4528C34.2931 273 35.9478 274.12 36.6313 275.828L38.4997 280.5H14.4997L16.3681 275.828ZM11.4997 290.981C9.69969 290.981 8.49969 289.785 8.49969 287.991C8.49969 286.196 9.69969 285 11.4997 285C13.2997 285 15.9997 287.692 15.9997 289.486C15.9997 291.28 13.2997 290.981 11.4997 290.981ZM41.4997 290.981C39.6997 290.981 36.9997 291.28 36.9997 289.486C36.9997 287.692 39.6997 285 41.4997 285C43.2997 285 44.4997 286.196 44.4997 287.991C44.4997 289.785 43.2997 290.981 41.4997 290.981Z" fill="black"/>
<path d="M17.3 405.4C21.1108 405.4 24.2 402.311 24.2 398.5C24.2 394.689 21.1108 391.6 17.3 391.6C13.4892 391.6 10.4 394.689 10.4 398.5C10.4 402.311 13.4892 405.4 17.3 405.4Z" fill="black"/>
<path d="M40.7715 389.3H26.5V407.7H8.1V387H3.5V419.2H8.1V412.3H44.9V419.2H49.5V410C49.5 409.979 49.4885 409.963 49.4885 409.945H49.5V398.5C49.5 393.679 45.5946 389.3 40.7715 389.3Z" fill="black"/>
<path d="M38.7667 535.4H19.6345L15.7053 538.755L11.7762 535.4H3.5V537.7C3.5 540.632 5.52496 543.02 8.02908 543.067C8.26196 544.516 8.82546 545.825 9.67358 546.85C10.928 548.365 12.7518 549.2 14.8083 549.2H27.4583C29.5149 549.2 31.3386 548.365 32.5931 546.848C33.4412 545.823 34.0047 544.514 34.2376 543.065C35.5678 543.041 36.7628 542.356 37.5918 541.28C38.366 540.248 38.7789 538.99 38.7667 537.7V535.4Z" fill="black"/>
<path d="M12.0292 532.334L15.7025 535.035L19.4083 532.334H38.7667V531.567C38.7656 530.684 38.46 529.828 37.9014 529.143C37.3427 528.459 36.5653 527.988 35.7 527.81C35.6214 524.965 34.4542 522.584 32.297 520.91C30.3017 519.354 27.6356 518.534 24.5833 518.534H17.6833C11.1456 518.534 6.71712 522.249 6.56667 527.81C5.7014 527.988 4.92393 528.459 4.36531 529.143C3.80669 529.828 3.50108 530.684 3.5 531.567V532.334H12.0292Z" fill="black"/>
<path d="M46.3452 510.867H39.197L40.0518 507.449L44.325 505.979L43.3667 503.2L37.425 505.117L36.0364 510.867H21.9V513.934H23.6969L23.8751 515.467H24.5833C28.3208 515.467 31.6424 516.511 34.1782 518.488C35.5886 519.574 36.7319 520.969 37.5208 522.565C38.007 523.556 38.3531 524.609 38.5491 525.694C39.9772 526.573 41.0361 527.943 41.528 529.546C42.0199 531.149 41.9111 532.877 41.2219 534.405C41.6257 535.457 41.8329 536.574 41.8333 537.7C41.8333 539.841 41.105 541.881 39.7825 543.445C38.9641 544.42 37.9157 545.176 36.7321 545.645C36.3288 546.794 35.7278 547.864 34.9563 548.807C34.8433 548.943 34.7273 549.077 34.6085 549.205H41.8333C43.3667 549.205 44.0375 548.438 44.2292 547.001L47.7175 513.938H49.5V510.867H46.3452Z" fill="black"/>
</svg>
