<svg width="33" height="33" viewBox="0 0 33 33" fill="none" xmlns="http://www.w3.org/2000/svg">
<path d="M0 29.9062C0 31.6143 1.58371 33 3.53571 33H29.4643C31.4163 33 33 31.6143 33 29.9062V12.375H0V29.9062ZM4.71429 17.5312C4.71429 16.9641 5.24464 16.5 5.89286 16.5H12.9643C13.6125 16.5 14.1429 16.9641 14.1429 17.5312V23.7188C14.1429 24.2859 13.6125 24.75 12.9643 24.75H5.89286C5.24464 24.75 4.71429 24.2859 4.71429 23.7188V17.5312ZM29.4643 4.125H25.9286V1.03125C25.9286 0.464062 25.3982 0 24.75 0H22.3929C21.7446 0 21.2143 0.464062 21.2143 1.03125V4.125H11.7857V1.03125C11.7857 0.464062 11.2554 0 10.6071 0H8.25C7.60179 0 7.07143 0.464062 7.07143 1.03125V4.125H3.53571C1.58371 4.125 0 5.51074 0 7.21875V10.3125H33V7.21875C33 5.51074 31.4163 4.125 29.4643 4.125Z" fill="#1A73E8"/>
</svg>
