<svg width="30" height="47" viewBox="0 0 30 47" fill="none" xmlns="http://www.w3.org/2000/svg">
<path d="M3.33333 1.66667C3.33333 0.7462 2.58713 0 1.66667 0C0.7462 0 0 0.7462 0 1.66667V11.6667C0 15.6983 2.86293 19.0612 6.66667 19.8333V45C6.66667 45.9203 7.41287 46.6667 8.33333 46.6667C9.2538 46.6667 10 45.9203 10 45V19.8333C13.8037 19.0612 16.6667 15.6983 16.6667 11.6667V1.66667C16.6667 0.7462 15.9205 0 15 0C14.0795 0 13.3333 0.7462 13.3333 1.66667V11.6667C13.3333 13.8437 11.942 15.6958 10 16.3822V1.66667C10 0.7462 9.2538 0 8.33333 0C7.41287 0 6.66667 0.7462 6.66667 1.66667V16.3822C4.72467 15.6958 3.33333 13.8437 3.33333 11.6667V1.66667ZM26.6667 45V23.3333H21.6667C20.7462 23.3333 20 22.5871 20 21.6667V8.33333C20 6.1246 21.0876 4.0554 22.5715 2.5715C24.0553 1.08757 26.1247 0 28.3333 0C29.2537 0 30 0.7462 30 1.66667V45C30 45.9203 29.2537 46.6667 28.3333 46.6667C27.413 46.6667 26.6667 45.9203 26.6667 45Z" fill="#F4B400"/>
</svg>
