<svg width="39" height="39" viewBox="0 0 39 39" fill="none" xmlns="http://www.w3.org/2000/svg">
<path fill-rule="evenodd" clip-rule="evenodd" d="M14.4 4.8C9.09806 4.8 4.8 9.09806 4.8 14.4C4.8 19.7018 9.09806 24 14.4 24C19.7018 24 24 19.7018 24 14.4C24 9.09806 19.7018 4.8 14.4 4.8ZM0 14.4C0 6.4471 6.4471 0 14.4 0C22.3529 0 28.8 6.4471 28.8 14.4C28.8 17.51 27.8141 20.3897 26.1377 22.7436L37.697 34.303C38.6342 35.2402 38.6342 36.7598 37.697 37.697C36.7598 38.6342 35.2402 38.6342 34.303 37.697L22.7436 26.1377C20.3897 27.8141 17.51 28.8 14.4 28.8C6.4471 28.8 0 22.3529 0 14.4Z" fill="#4A5568"/>
</svg>
