<svg width="28" height="37" viewBox="0 0 28 37" fill="none" xmlns="http://www.w3.org/2000/svg">
<path d="M14 36.0074C11.4738 33.8526 9.13238 31.4904 7 28.9454C3.8 25.1234 1.7719e-06 19.4314 1.7719e-06 14.0074C-0.00283823 8.34253 3.4085 3.23421 8.64214 1.06623C13.8758 -1.10177 19.9002 0.0979066 23.904 4.10543C26.537 6.72665 28.0118 10.2922 28 14.0074C28 19.4314 24.2 25.1234 21 28.9454C18.8676 31.4904 16.5262 33.8526 14 36.0074ZM14 8.00743C11.8564 8.00743 9.87564 9.15103 8.80386 11.0074C7.73206 12.8638 7.73206 15.151 8.80386 17.0074C9.87564 18.8638 11.8564 20.0074 14 20.0074C17.3138 20.0074 20 17.321 20 14.0074C20 10.6937 17.3138 8.00743 14 8.00743Z" fill="#DB4437"/>
</svg>
