<svg width="45" height="46" viewBox="0 0 45 46" fill="none" xmlns="http://www.w3.org/2000/svg">
<path d="M44.7348 19.4007L44.5034 18.4188H23.1614V27.4515H35.913C34.5891 33.7382 28.4457 37.0474 23.4276 37.0474C19.7765 37.0474 15.9276 35.5116 13.3802 33.043C12.0362 31.7198 10.9663 30.1444 10.2319 28.4071C9.49754 26.6699 9.113 24.8048 9.10034 22.9188C9.10034 19.114 10.8102 15.3082 13.2983 12.8048C15.7863 10.3014 19.544 8.90068 23.2802 8.90068C27.559 8.90068 30.6256 11.1727 31.7724 12.2089L38.1911 5.82389C36.3082 4.16928 31.1355 0 23.0734 0C16.8532 0 10.8891 2.38259 6.52935 6.72799C2.22696 11.0068 0 17.1942 0 22.9352C0 28.6761 2.10717 34.5543 6.27645 38.8669C10.7314 43.4662 17.0406 45.8703 23.5372 45.8703C29.4481 45.8703 35.0509 43.5543 39.044 39.3522C42.9696 35.2157 45 29.4922 45 23.4922C45 20.9662 44.7461 19.4662 44.7348 19.4007Z" fill="white"/>
</svg>
